<?xml version="1.0" encoding="UTF-8"?>
<svg xmlns="http://www.w3.org/2000/svg" xmlns:xlink="http://www.w3.org/1999/xlink" width="504pt" height="360pt" viewBox="0 0 504 360" version="1.1">
<defs>
<clipPath id="clip1">
  <path d="M 72 0 L 432 0 L 432 360 L 72 360 Z M 72 0 "/>
</clipPath>
</defs>
<g id="surface1417">
<rect x="0" y="0" width="504" height="360" style="fill:rgb(100%,100%,100%);fill-opacity:1;stroke:none;"/>
<path style=" stroke:none;fill-rule:nonzero;fill:rgb(100%,100%,100%);fill-opacity:1;" d="M 72 360 L 432 360 L 432 0 L 72 0 Z M 72 360 "/>
<g clip-path="url(#clip1)" clip-rule="nonzero">
<path style="fill:none;stroke-width:1.066978;stroke-linecap:round;stroke-linejoin:round;stroke:rgb(100%,100%,100%);stroke-opacity:1;stroke-miterlimit:10;" d="M 72 360 L 432 360 L 432 0 L 72 0 Z M 72 360 "/>
</g>
<path style="fill-rule:nonzero;fill:rgb(100%,100%,100%);fill-opacity:1;stroke-width:1.066978;stroke-linecap:round;stroke-linejoin:round;stroke:rgb(100%,100%,100%);stroke-opacity:1;stroke-miterlimit:10;" d="M 80.21875 351.78125 L 426.519531 351.78125 L 426.519531 5.480469 L 80.21875 5.480469 Z M 80.21875 351.78125 "/>
<path style="fill:none;stroke-width:1.066978;stroke-linecap:round;stroke-linejoin:round;stroke:rgb(0%,0%,100%);stroke-opacity:1;stroke-miterlimit:10;" d="M 273.570312 138.628906 L 275.792969 134.226562 L 278.019531 129.824219 L 291.355469 103.410156 L 293.582031 99.007812 L 300.25 85.800781 L 302.472656 81.394531 L 306.917969 72.589844 L 309.144531 68.1875 L 315.8125 54.980469 "/>
<path style="fill:none;stroke-width:1.066978;stroke-linecap:round;stroke-linejoin:round;stroke:rgb(0%,0%,100%);stroke-opacity:1;stroke-miterlimit:10;" d="M 263.492188 134.972656 L 264.558594 130.375 L 270.957031 102.765625 L 272.027344 98.167969 L 277.359375 75.160156 L 278.425781 70.5625 L 280.558594 61.359375 "/>
<path style="fill:none;stroke-width:1.066978;stroke-linecap:round;stroke-linejoin:round;stroke:rgb(0%,0%,100%);stroke-opacity:1;stroke-miterlimit:10;" d="M 246.371094 151.421875 L 245.144531 146.660156 L 243.917969 141.894531 L 242.695312 137.132812 L 240.242188 127.609375 L 239.019531 122.847656 L 237.792969 118.085938 L 236.570312 113.324219 L 234.117188 103.800781 L 232.894531 99.039062 L 230.441406 89.515625 L 229.21875 84.75 L 227.992188 79.988281 L 226.769531 75.226562 "/>
<path style="fill:none;stroke-width:1.066978;stroke-linecap:round;stroke-linejoin:round;stroke:rgb(0%,0%,100%);stroke-opacity:1;stroke-miterlimit:10;" d="M 240.105469 153.863281 L 237.777344 149.507812 L 235.445312 145.15625 L 233.113281 140.800781 L 230.78125 136.449219 L 228.453125 132.097656 L 226.121094 127.742188 L 223.789062 123.390625 L 221.457031 119.035156 L 219.128906 114.683594 L 216.796875 110.328125 L 212.132812 101.625 L 209.804688 97.269531 L 207.472656 92.917969 L 205.140625 88.5625 L 202.808594 84.210938 "/>
<path style="fill:none;stroke-width:1.066978;stroke-linecap:round;stroke-linejoin:round;stroke:rgb(0%,0%,100%);stroke-opacity:1;stroke-miterlimit:10;" d="M 253.144531 159.695312 L 253.082031 154.546875 L 253.019531 149.394531 L 252.894531 139.097656 L 252.835938 133.945312 L 252.648438 118.5 L 252.585938 113.347656 L 252.523438 108.199219 "/>
<path style="fill:none;stroke-width:1.066978;stroke-linecap:round;stroke-linejoin:round;stroke:rgb(0%,0%,100%);stroke-opacity:1;stroke-miterlimit:10;" d="M 270.308594 166.449219 L 274.3125 163.566406 L 278.316406 160.6875 L 282.324219 157.804688 L 286.328125 154.925781 L 290.332031 152.042969 L 294.339844 149.164062 L 298.34375 146.28125 L 302.351562 143.402344 L 306.355469 140.519531 L 310.359375 137.640625 L 314.367188 134.757812 "/>
<path style="fill:none;stroke-width:1.066978;stroke-linecap:round;stroke-linejoin:round;stroke:rgb(0%,0%,100%);stroke-opacity:1;stroke-miterlimit:10;" d="M 266.929688 162.773438 L 270.105469 159.058594 L 273.285156 155.339844 L 276.460938 151.625 L 279.640625 147.910156 L 282.816406 144.195312 L 285.996094 140.476562 L 292.347656 133.046875 L 295.527344 129.332031 L 298.703125 125.613281 L 301.882812 121.898438 L 305.058594 118.183594 L 308.238281 114.46875 L 311.414062 110.75 L 314.589844 107.035156 L 317.769531 103.320312 "/>
<path style="fill:none;stroke-width:1.066978;stroke-linecap:round;stroke-linejoin:round;stroke:rgb(0%,0%,100%);stroke-opacity:1;stroke-miterlimit:10;" d="M 262.671875 174.875 L 267.136719 173.070312 L 276.066406 169.46875 L 280.53125 167.664062 L 284.996094 165.863281 L 289.460938 164.058594 L 293.925781 162.257812 L 298.386719 160.457031 L 302.851562 158.652344 L 307.316406 156.851562 L 311.78125 155.046875 L 320.710938 151.445312 L 325.175781 149.640625 L 329.640625 147.839844 "/>
<path style="fill:none;stroke-width:1.066978;stroke-linecap:round;stroke-linejoin:round;stroke:rgb(0%,0%,100%);stroke-opacity:1;stroke-miterlimit:10;" d="M 230.855469 163.242188 L 222.902344 157.804688 L 218.921875 155.085938 L 210.96875 149.648438 L 206.988281 146.929688 L 199.035156 141.492188 L 195.058594 138.777344 L 191.078125 136.058594 "/>
<path style="fill:none;stroke-width:1.066978;stroke-linecap:round;stroke-linejoin:round;stroke:rgb(0%,0%,100%);stroke-opacity:1;stroke-miterlimit:10;" d="M 227.847656 169.03125 L 223.386719 167.355469 L 218.925781 165.675781 L 214.46875 164 L 210.007812 162.320312 L 205.546875 160.644531 L 201.089844 158.96875 L 196.628906 157.289062 L 192.167969 155.613281 L 187.710938 153.9375 L 183.25 152.257812 L 178.789062 150.582031 L 174.332031 148.902344 L 169.871094 147.226562 "/>
<path style="fill:none;stroke-width:1.066978;stroke-linecap:round;stroke-linejoin:round;stroke:rgb(0%,0%,100%);stroke-opacity:1;stroke-miterlimit:10;" d="M 244.316406 168.542969 L 231.050781 153.761719 L 227.734375 150.070312 L 221.101562 142.679688 L 217.789062 138.984375 L 207.839844 127.898438 L 204.523438 124.207031 L 194.574219 113.121094 "/>
<path style="fill:none;stroke-width:1.066978;stroke-linecap:round;stroke-linejoin:round;stroke:rgb(0%,0%,100%);stroke-opacity:1;stroke-miterlimit:10;" d="M 239.152344 233.886719 L 237.566406 240.058594 L 235.980469 246.226562 "/>
<path style="fill:none;stroke-width:1.066978;stroke-linecap:round;stroke-linejoin:round;stroke:rgb(0%,0%,100%);stroke-opacity:1;stroke-miterlimit:10;" d="M 300.902344 234.214844 L 304.320312 238.210938 "/>
<path style="fill:none;stroke-width:1.066978;stroke-linecap:round;stroke-linejoin:round;stroke:rgb(0%,0%,100%);stroke-opacity:1;stroke-miterlimit:10;" d="M 315.242188 223.128906 L 318.34375 225.363281 "/>
<path style="fill:none;stroke-width:1.066978;stroke-linecap:round;stroke-linejoin:round;stroke:rgb(0%,0%,100%);stroke-opacity:1;stroke-miterlimit:10;" d="M 326.460938 208.140625 L 329.871094 209.515625 "/>
<path style="fill:none;stroke-width:1.066978;stroke-linecap:round;stroke-linejoin:round;stroke:rgb(0%,0%,100%);stroke-opacity:1;stroke-miterlimit:10;" d="M 331.378906 189.933594 L 332.363281 190.074219 "/>
<path style="fill:none;stroke-width:1.066978;stroke-linecap:round;stroke-linejoin:round;stroke:rgb(0%,0%,100%);stroke-opacity:1;stroke-miterlimit:10;" d="M 271.511719 256.886719 L 271.703125 257.699219 "/>
<path style="fill:none;stroke-width:1.066978;stroke-linecap:round;stroke-linejoin:round;stroke:rgb(0%,0%,100%);stroke-opacity:1;stroke-miterlimit:10;" d="M 289.582031 250.335938 L 289.910156 250.984375 "/>
<path style="fill:none;stroke-width:1.066978;stroke-linecap:round;stroke-linejoin:round;stroke:rgb(0%,0%,100%);stroke-opacity:1;stroke-miterlimit:10;" d="M 252.617188 241.355469 L 252.546875 247.316406 L 252.476562 253.273438 "/>
<path style="fill:none;stroke-width:1.066978;stroke-linecap:round;stroke-linejoin:round;stroke:rgb(0%,0%,100%);stroke-opacity:1;stroke-miterlimit:10;" d="M 248.285156 188.125 L 245.960938 192.464844 L 243.640625 196.800781 L 236.667969 209.820312 L 234.347656 214.15625 L 229.699219 222.835938 L 227.375 227.171875 L 225.054688 231.511719 "/>
<path style="fill:none;stroke-width:1.066978;stroke-linecap:round;stroke-linejoin:round;stroke:rgb(0%,0%,100%);stroke-opacity:1;stroke-miterlimit:10;" d="M 223.980469 175.089844 L 219.175781 174.511719 L 214.367188 173.929688 L 209.5625 173.351562 L 204.753906 172.773438 L 199.949219 172.195312 L 195.140625 171.613281 L 185.53125 170.457031 L 180.722656 169.878906 L 175.917969 169.296875 L 171.109375 168.71875 "/>
<path style="fill:none;stroke-width:1.066978;stroke-linecap:round;stroke-linejoin:round;stroke:rgb(0%,0%,100%);stroke-opacity:1;stroke-miterlimit:10;" d="M 184.667969 186.90625 L 178.957031 187.597656 L 161.824219 189.660156 "/>
<path style="fill:none;stroke-width:1.066978;stroke-linecap:round;stroke-linejoin:round;stroke:rgb(0%,0%,100%);stroke-opacity:1;stroke-miterlimit:10;" d="M 183.410156 204.941406 L 167.460938 210.941406 "/>
<path style="fill:none;stroke-width:1.066978;stroke-linecap:round;stroke-linejoin:round;stroke:rgb(0%,0%,100%);stroke-opacity:1;stroke-miterlimit:10;" d="M 186.492188 224.339844 L 181.785156 227.554688 L 172.371094 233.992188 "/>
<path style="fill:none;stroke-width:1.066978;stroke-linecap:round;stroke-linejoin:round;stroke:rgb(0%,0%,100%);stroke-opacity:1;stroke-miterlimit:10;" d="M 199.261719 238.917969 L 191.496094 247.566406 "/>
<path style="fill:none;stroke-width:1.066978;stroke-linecap:round;stroke-linejoin:round;stroke:rgb(0%,0%,100%);stroke-opacity:1;stroke-miterlimit:10;" d="M 253.371094 178.628906 L 253.371094 178.628906 "/>
<path style="fill:none;stroke-width:1.066978;stroke-linecap:round;stroke-linejoin:round;stroke:rgb(0%,0%,100%);stroke-opacity:1;stroke-miterlimit:10;" d="M 253.371094 178.628906 L 254.398438 176.925781 "/>
<path style="fill:none;stroke-width:1.066978;stroke-linecap:round;stroke-linejoin:round;stroke:rgb(0%,0%,100%);stroke-opacity:1;stroke-miterlimit:10;" d="M 253.523438 176.644531 L 253.96875 170.96875 L 254.410156 165.289062 "/>
<path style="fill:none;stroke-width:1.066978;stroke-linecap:round;stroke-linejoin:round;stroke:rgb(0%,0%,100%);stroke-opacity:1;stroke-miterlimit:10;" d="M 257.929688 166.050781 L 265.070312 146.347656 L 266.855469 141.425781 L 268.640625 136.5 "/>
<path style="fill:none;stroke-width:1.066978;stroke-linecap:round;stroke-linejoin:round;stroke:rgb(0%,0%,100%);stroke-opacity:1;stroke-miterlimit:10;" d="M 250.820312 165.496094 L 249.757812 160.039062 "/>
<path style="fill:none;stroke-width:1.066978;stroke-linecap:round;stroke-linejoin:round;stroke:rgb(0%,0%,100%);stroke-opacity:1;stroke-miterlimit:10;" d="M 246.492188 160.988281 L 243.164062 152.453125 "/>
<path style="fill:none;stroke-width:1.066978;stroke-linecap:round;stroke-linejoin:round;stroke:rgb(0%,0%,100%);stroke-opacity:1;stroke-miterlimit:10;" d="M 255.054688 177.566406 L 261.851562 173.269531 "/>
<path style="fill:none;stroke-width:1.066978;stroke-linecap:round;stroke-linejoin:round;stroke:rgb(0%,0%,100%);stroke-opacity:1;stroke-miterlimit:10;" d="M 260.753906 171.839844 L 264.742188 168.175781 L 268.730469 164.507812 "/>
<path style="fill:none;stroke-width:1.066978;stroke-linecap:round;stroke-linejoin:round;stroke:rgb(0%,0%,100%);stroke-opacity:1;stroke-miterlimit:10;" d="M 253.371094 178.628906 L 251.378906 178.691406 "/>
<path style="fill:none;stroke-width:1.066978;stroke-linecap:round;stroke-linejoin:round;stroke:rgb(0%,0%,100%);stroke-opacity:1;stroke-miterlimit:10;" d="M 251.796875 177.410156 L 242.65625 170.324219 "/>
<path style="fill:none;stroke-width:1.066978;stroke-linecap:round;stroke-linejoin:round;stroke:rgb(0%,0%,100%);stroke-opacity:1;stroke-miterlimit:10;" d="M 241.34375 172.375 L 229.179688 166.046875 "/>
<path style="fill:none;stroke-width:1.066978;stroke-linecap:round;stroke-linejoin:round;stroke:rgb(0%,0%,100%);stroke-opacity:1;stroke-miterlimit:10;" d="M 251.875 179.945312 L 248.714844 182.734375 "/>
<path style="fill:none;stroke-width:1.066978;stroke-linecap:round;stroke-linejoin:round;stroke:rgb(0%,0%,100%);stroke-opacity:1;stroke-miterlimit:10;" d="M 251.949219 184.671875 L 250.902344 189.113281 "/>
<path style="fill:none;stroke-width:1.066978;stroke-linecap:round;stroke-linejoin:round;stroke:rgb(0%,0%,100%);stroke-opacity:1;stroke-miterlimit:10;" d="M 253.683594 189.394531 L 253.835938 194.535156 L 253.984375 199.675781 L 254.136719 204.816406 L 254.285156 209.960938 L 254.4375 215.101562 L 254.585938 220.242188 L 254.738281 225.382812 L 254.886719 230.523438 L 255.039062 235.664062 "/>
<path style="fill:none;stroke-width:1.066978;stroke-linecap:round;stroke-linejoin:round;stroke:rgb(0%,0%,100%);stroke-opacity:1;stroke-miterlimit:10;" d="M 270.789062 232.960938 L 272.523438 238.367188 "/>
<path style="fill:none;stroke-width:1.066978;stroke-linecap:round;stroke-linejoin:round;stroke:rgb(0%,0%,100%);stroke-opacity:1;stroke-miterlimit:10;" d="M 290.457031 229.226562 L 294.015625 234.082031 "/>
<path style="fill:none;stroke-width:1.066978;stroke-linecap:round;stroke-linejoin:round;stroke:rgb(0%,0%,100%);stroke-opacity:1;stroke-miterlimit:10;" d="M 307.957031 220.429688 L 311.4375 223.097656 "/>
<path style="fill:none;stroke-width:1.066978;stroke-linecap:round;stroke-linejoin:round;stroke:rgb(0%,0%,100%);stroke-opacity:1;stroke-miterlimit:10;" d="M 319.425781 210.023438 L 322.203125 211.34375 "/>
<path style="fill:none;stroke-width:1.066978;stroke-linecap:round;stroke-linejoin:round;stroke:rgb(0%,0%,100%);stroke-opacity:1;stroke-miterlimit:10;" d="M 326.945312 198.503906 L 329.46875 199.183594 "/>
<path style="fill:none;stroke-width:1.066978;stroke-linecap:round;stroke-linejoin:round;stroke:rgb(0%,0%,100%);stroke-opacity:1;stroke-miterlimit:10;" d="M 276.800781 243.269531 L 278.773438 248.710938 L 280.742188 254.152344 "/>
<path style="fill:none;stroke-width:1.066978;stroke-linecap:round;stroke-linejoin:round;stroke:rgb(0%,0%,100%);stroke-opacity:1;stroke-miterlimit:10;" d="M 247.199219 179.28125 L 241.382812 179.890625 L 223.933594 181.730469 "/>
<path style="fill:none;stroke-width:1.066978;stroke-linecap:round;stroke-linejoin:round;stroke:rgb(0%,0%,100%);stroke-opacity:1;stroke-miterlimit:10;" d="M 225.363281 188.214844 L 220.679688 189.816406 L 215.996094 191.421875 L 211.316406 193.023438 L 201.949219 196.226562 L 197.265625 197.832031 L 192.582031 199.433594 L 187.902344 201.035156 "/>
<path style="fill:none;stroke-width:1.066978;stroke-linecap:round;stroke-linejoin:round;stroke:rgb(0%,0%,100%);stroke-opacity:1;stroke-miterlimit:10;" d="M 194.003906 214.183594 L 189.246094 217.03125 "/>
<path style="fill:none;stroke-width:1.066978;stroke-linecap:round;stroke-linejoin:round;stroke:rgb(0%,0%,100%);stroke-opacity:1;stroke-miterlimit:10;" d="M 197.152344 227.882812 L 192.4375 232.011719 "/>
<path style="fill:none;stroke-width:1.066978;stroke-linecap:round;stroke-linejoin:round;stroke:rgb(0%,0%,100%);stroke-opacity:1;stroke-miterlimit:10;" d="M 268.640625 136.5 L 273.570312 138.628906 "/>
<path style="fill:none;stroke-width:1.066978;stroke-linecap:round;stroke-linejoin:round;stroke:rgb(0%,0%,100%);stroke-opacity:1;stroke-miterlimit:10;" d="M 268.640625 136.5 L 263.492188 134.972656 "/>
<path style="fill:none;stroke-width:1.066978;stroke-linecap:round;stroke-linejoin:round;stroke:rgb(0%,0%,100%);stroke-opacity:1;stroke-miterlimit:10;" d="M 243.164062 152.453125 L 246.371094 151.421875 "/>
<path style="fill:none;stroke-width:1.066978;stroke-linecap:round;stroke-linejoin:round;stroke:rgb(0%,0%,100%);stroke-opacity:1;stroke-miterlimit:10;" d="M 243.164062 152.453125 L 240.105469 153.863281 "/>
<path style="fill:none;stroke-width:1.066978;stroke-linecap:round;stroke-linejoin:round;stroke:rgb(0%,0%,100%);stroke-opacity:1;stroke-miterlimit:10;" d="M 249.757812 160.039062 L 253.144531 159.695312 "/>
<path style="fill:none;stroke-width:1.066978;stroke-linecap:round;stroke-linejoin:round;stroke:rgb(0%,0%,100%);stroke-opacity:1;stroke-miterlimit:10;" d="M 268.730469 164.507812 L 270.308594 166.449219 "/>
<path style="fill:none;stroke-width:1.066978;stroke-linecap:round;stroke-linejoin:round;stroke:rgb(0%,0%,100%);stroke-opacity:1;stroke-miterlimit:10;" d="M 268.730469 164.507812 L 266.929688 162.773438 "/>
<path style="fill:none;stroke-width:1.066978;stroke-linecap:round;stroke-linejoin:round;stroke:rgb(0%,0%,100%);stroke-opacity:1;stroke-miterlimit:10;" d="M 261.851562 173.269531 L 262.671875 174.875 "/>
<path style="fill:none;stroke-width:1.066978;stroke-linecap:round;stroke-linejoin:round;stroke:rgb(0%,0%,100%);stroke-opacity:1;stroke-miterlimit:10;" d="M 229.179688 166.046875 L 230.855469 163.242188 "/>
<path style="fill:none;stroke-width:1.066978;stroke-linecap:round;stroke-linejoin:round;stroke:rgb(0%,0%,100%);stroke-opacity:1;stroke-miterlimit:10;" d="M 229.179688 166.046875 L 227.847656 169.03125 "/>
<path style="fill:none;stroke-width:1.066978;stroke-linecap:round;stroke-linejoin:round;stroke:rgb(0%,0%,100%);stroke-opacity:1;stroke-miterlimit:10;" d="M 242.65625 170.324219 L 244.316406 168.542969 "/>
<path style="fill:none;stroke-width:1.066978;stroke-linecap:round;stroke-linejoin:round;stroke:rgb(0%,0%,100%);stroke-opacity:1;stroke-miterlimit:10;" d="M 255.039062 235.664062 L 249.695312 235.566406 L 244.386719 234.976562 L 239.152344 233.886719 "/>
<path style="fill:none;stroke-width:1.066978;stroke-linecap:round;stroke-linejoin:round;stroke:rgb(0%,0%,100%);stroke-opacity:1;stroke-miterlimit:10;" d="M 311.4375 223.097656 L 308.1875 227.046875 L 304.671875 230.757812 L 300.902344 234.214844 "/>
<path style="fill:none;stroke-width:1.066978;stroke-linecap:round;stroke-linejoin:round;stroke:rgb(0%,0%,100%);stroke-opacity:1;stroke-miterlimit:10;" d="M 322.203125 211.34375 L 318.988281 217.394531 L 315.242188 223.128906 "/>
<path style="fill:none;stroke-width:1.066978;stroke-linecap:round;stroke-linejoin:round;stroke:rgb(0%,0%,100%);stroke-opacity:1;stroke-miterlimit:10;" d="M 329.46875 199.183594 L 328.097656 203.707031 L 326.460938 208.140625 "/>
<path style="fill:none;stroke-width:1.066978;stroke-linecap:round;stroke-linejoin:round;stroke:rgb(0%,0%,100%);stroke-opacity:1;stroke-miterlimit:10;" d="M 329.46875 199.183594 L 330.5625 194.585938 L 331.378906 189.933594 "/>
<path style="fill:none;stroke-width:1.066978;stroke-linecap:round;stroke-linejoin:round;stroke:rgb(0%,0%,100%);stroke-opacity:1;stroke-miterlimit:10;" d="M 280.742188 254.152344 L 276.167969 255.65625 L 271.511719 256.886719 "/>
<path style="fill:none;stroke-width:1.066978;stroke-linecap:round;stroke-linejoin:round;stroke:rgb(0%,0%,100%);stroke-opacity:1;stroke-miterlimit:10;" d="M 280.742188 254.152344 L 285.21875 252.378906 L 289.582031 250.335938 "/>
<path style="fill:none;stroke-width:1.066978;stroke-linecap:round;stroke-linejoin:round;stroke:rgb(0%,0%,100%);stroke-opacity:1;stroke-miterlimit:10;" d="M 272.523438 238.367188 L 267.652344 239.714844 L 262.691406 240.664062 L 257.667969 241.214844 L 252.617188 241.355469 "/>
<path style="fill:none;stroke-width:1.066978;stroke-linecap:round;stroke-linejoin:round;stroke:rgb(0%,0%,100%);stroke-opacity:1;stroke-miterlimit:10;" d="M 250.902344 189.113281 L 248.285156 188.125 "/>
<path style="fill:none;stroke-width:1.066978;stroke-linecap:round;stroke-linejoin:round;stroke:rgb(0%,0%,100%);stroke-opacity:1;stroke-miterlimit:10;" d="M 223.933594 181.730469 L 223.980469 175.089844 "/>
<path style="fill:none;stroke-width:1.066978;stroke-linecap:round;stroke-linejoin:round;stroke:rgb(0%,0%,100%);stroke-opacity:1;stroke-miterlimit:10;" d="M 187.902344 201.035156 L 186.496094 196.40625 L 185.417969 191.6875 L 184.667969 186.90625 "/>
<path style="fill:none;stroke-width:1.066978;stroke-linecap:round;stroke-linejoin:round;stroke:rgb(0%,0%,100%);stroke-opacity:1;stroke-miterlimit:10;" d="M 189.246094 217.03125 L 186.058594 211.117188 L 183.410156 204.941406 "/>
<path style="fill:none;stroke-width:1.066978;stroke-linecap:round;stroke-linejoin:round;stroke:rgb(0%,0%,100%);stroke-opacity:1;stroke-miterlimit:10;" d="M 192.4375 232.011719 L 189.351562 228.265625 L 186.492188 224.339844 "/>
<path style="fill:none;stroke-width:1.066978;stroke-linecap:round;stroke-linejoin:round;stroke:rgb(0%,0%,100%);stroke-opacity:1;stroke-miterlimit:10;" d="M 192.4375 232.011719 L 195.746094 235.566406 L 199.261719 238.917969 "/>
<path style="fill:none;stroke-width:1.066978;stroke-linecap:round;stroke-linejoin:round;stroke:rgb(0%,0%,100%);stroke-opacity:1;stroke-miterlimit:10;" d="M 253.371094 178.628906 L 253.371094 178.628906 "/>
<path style="fill:none;stroke-width:1.066978;stroke-linecap:round;stroke-linejoin:round;stroke:rgb(0%,0%,100%);stroke-opacity:1;stroke-miterlimit:10;" d="M 253.371094 178.628906 L 253.371094 178.628906 "/>
<path style="fill:none;stroke-width:1.066978;stroke-linecap:round;stroke-linejoin:round;stroke:rgb(0%,0%,100%);stroke-opacity:1;stroke-miterlimit:10;" d="M 254.398438 176.925781 L 253.523438 176.644531 "/>
<path style="fill:none;stroke-width:1.066978;stroke-linecap:round;stroke-linejoin:round;stroke:rgb(0%,0%,100%);stroke-opacity:1;stroke-miterlimit:10;" d="M 254.410156 165.289062 L 257.929688 166.050781 "/>
<path style="fill:none;stroke-width:1.066978;stroke-linecap:round;stroke-linejoin:round;stroke:rgb(0%,0%,100%);stroke-opacity:1;stroke-miterlimit:10;" d="M 254.410156 165.289062 L 250.820312 165.496094 "/>
<path style="fill:none;stroke-width:1.066978;stroke-linecap:round;stroke-linejoin:round;stroke:rgb(0%,0%,100%);stroke-opacity:1;stroke-miterlimit:10;" d="M 249.757812 160.039062 L 246.492188 160.988281 "/>
<path style="fill:none;stroke-width:1.066978;stroke-linecap:round;stroke-linejoin:round;stroke:rgb(0%,0%,100%);stroke-opacity:1;stroke-miterlimit:10;" d="M 254.398438 176.925781 L 255.054688 177.566406 "/>
<path style="fill:none;stroke-width:1.066978;stroke-linecap:round;stroke-linejoin:round;stroke:rgb(0%,0%,100%);stroke-opacity:1;stroke-miterlimit:10;" d="M 261.851562 173.269531 L 260.753906 171.839844 "/>
<path style="fill:none;stroke-width:1.066978;stroke-linecap:round;stroke-linejoin:round;stroke:rgb(0%,0%,100%);stroke-opacity:1;stroke-miterlimit:10;" d="M 253.371094 178.628906 L 253.371094 178.628906 "/>
<path style="fill:none;stroke-width:1.066978;stroke-linecap:round;stroke-linejoin:round;stroke:rgb(0%,0%,100%);stroke-opacity:1;stroke-miterlimit:10;" d="M 251.378906 178.691406 L 251.796875 177.410156 "/>
<path style="fill:none;stroke-width:1.066978;stroke-linecap:round;stroke-linejoin:round;stroke:rgb(0%,0%,100%);stroke-opacity:1;stroke-miterlimit:10;" d="M 242.65625 170.324219 L 241.34375 172.375 "/>
<path style="fill:none;stroke-width:1.066978;stroke-linecap:round;stroke-linejoin:round;stroke:rgb(0%,0%,100%);stroke-opacity:1;stroke-miterlimit:10;" d="M 251.378906 178.691406 L 251.875 179.945312 "/>
<path style="fill:none;stroke-width:1.066978;stroke-linecap:round;stroke-linejoin:round;stroke:rgb(0%,0%,100%);stroke-opacity:1;stroke-miterlimit:10;" d="M 248.714844 182.734375 L 251.949219 184.671875 "/>
<path style="fill:none;stroke-width:1.066978;stroke-linecap:round;stroke-linejoin:round;stroke:rgb(0%,0%,100%);stroke-opacity:1;stroke-miterlimit:10;" d="M 250.902344 189.113281 L 253.683594 189.394531 "/>
<path style="fill:none;stroke-width:1.066978;stroke-linecap:round;stroke-linejoin:round;stroke:rgb(0%,0%,100%);stroke-opacity:1;stroke-miterlimit:10;" d="M 255.039062 235.664062 L 260.363281 235.257812 L 265.632812 234.355469 L 270.789062 232.960938 "/>
<path style="fill:none;stroke-width:1.066978;stroke-linecap:round;stroke-linejoin:round;stroke:rgb(0%,0%,100%);stroke-opacity:1;stroke-miterlimit:10;" d="M 272.523438 238.367188 L 277.269531 236.632812 L 281.859375 234.519531 L 286.261719 232.046875 L 290.457031 229.226562 "/>
<path style="fill:none;stroke-width:1.066978;stroke-linecap:round;stroke-linejoin:round;stroke:rgb(0%,0%,100%);stroke-opacity:1;stroke-miterlimit:10;" d="M 294.015625 234.082031 L 297.855469 231.050781 L 301.472656 227.753906 L 304.847656 224.207031 L 307.957031 220.429688 "/>
<path style="fill:none;stroke-width:1.066978;stroke-linecap:round;stroke-linejoin:round;stroke:rgb(0%,0%,100%);stroke-opacity:1;stroke-miterlimit:10;" d="M 311.4375 223.097656 L 314.40625 218.929688 L 317.070312 214.566406 L 319.425781 210.023438 "/>
<path style="fill:none;stroke-width:1.066978;stroke-linecap:round;stroke-linejoin:round;stroke:rgb(0%,0%,100%);stroke-opacity:1;stroke-miterlimit:10;" d="M 322.203125 211.34375 L 324.863281 205.03125 L 326.945312 198.503906 "/>
<path style="fill:none;stroke-width:1.066978;stroke-linecap:round;stroke-linejoin:round;stroke:rgb(0%,0%,100%);stroke-opacity:1;stroke-miterlimit:10;" d="M 294.015625 234.082031 L 289.96875 236.835938 L 285.734375 239.289062 L 281.335938 241.4375 L 276.800781 243.269531 "/>
<path style="fill:none;stroke-width:1.066978;stroke-linecap:round;stroke-linejoin:round;stroke:rgb(0%,0%,100%);stroke-opacity:1;stroke-miterlimit:10;" d="M 248.714844 182.734375 L 247.199219 179.28125 "/>
<path style="fill:none;stroke-width:1.066978;stroke-linecap:round;stroke-linejoin:round;stroke:rgb(0%,0%,100%);stroke-opacity:1;stroke-miterlimit:10;" d="M 223.933594 181.730469 L 225.363281 188.214844 "/>
<path style="fill:none;stroke-width:1.066978;stroke-linecap:round;stroke-linejoin:round;stroke:rgb(0%,0%,100%);stroke-opacity:1;stroke-miterlimit:10;" d="M 187.902344 201.035156 L 189.628906 205.558594 L 191.664062 209.945312 L 194.003906 214.183594 "/>
<path style="fill:none;stroke-width:1.066978;stroke-linecap:round;stroke-linejoin:round;stroke:rgb(0%,0%,100%);stroke-opacity:1;stroke-miterlimit:10;" d="M 189.246094 217.03125 L 192.953125 222.636719 L 197.152344 227.882812 "/>
</g>
</svg>
